<?xml version="1.0" standalone="no"?>
<!DOCTYPE svg PUBLIC "-//W3C//DTD SVG 20010904//EN"
 "http://www.w3.org/TR/2001/REC-SVG-20010904/DTD/svg10.dtd">
<svg version="1.0" xmlns="http://www.w3.org/2000/svg"
 width="1500.000000pt" height="1500.000000pt" viewBox="0 0 1500.000000 1500.000000"
 preserveAspectRatio="xMidYMid meet">
<metadata>
Created by potrace 1.16, written by Peter Selinger 2001-2019
</metadata>
<g transform="translate(0.000000,1500.000000) scale(0.100000,-0.100000)"
fill="#000000" stroke="none">
<path d="M9718 10223 c-9 -2 -19 -12 -23 -21 -6 -17 8 -32 69 -75 59 -41 116
-213 116 -351 0 -136 -63 -327 -131 -398 -21 -23 -38 -42 -37 -43 37 -23 81
-56 111 -82 21 -19 42 -31 48 -28 5 4 27 41 48 83 111 221 146 452 95 623 -21
68 -68 163 -106 209 -46 58 -136 97 -190 83z"/>
<path d="M7922 7794 c-62 -31 -92 -66 -92 -107 0 -36 451 -958 489 -1000 50
-55 146 -58 205 -6 41 35 499 963 499 1009 0 39 -34 76 -98 106 -64 30 -106
31 -134 2 -12 -13 -96 -185 -186 -383 -90 -198 -168 -366 -172 -373 -6 -9 -64
107 -173 347 -91 199 -178 377 -193 396 -35 44 -71 46 -145 9z"/>
<path d="M2943 7796 c-53 -24 -54 -43 -51 -589 3 -451 5 -495 21 -520 9 -15
30 -30 45 -34 15 -5 124 -8 242 -8 173 1 228 4 280 18 154 42 299 164 369 310
50 104 65 183 58 300 -11 187 -104 341 -271 449 -111 72 -160 81 -426 85 -187
2 -241 0 -267 -11z m526 -301 c113 -62 167 -161 159 -289 -8 -116 -69 -203
-178 -255 -47 -21 -72 -26 -167 -29 l-113 -4 0 307 0 307 123 -4 c113 -3 126
-5 176 -33z"/>
<path d="M4502 7793 c-18 -9 -41 -28 -50 -42 -38 -55 -472 -969 -472 -993 0
-37 36 -77 94 -104 60 -28 103 -30 135 -8 13 10 47 67 77 130 l53 114 225 0
224 0 52 -107 c28 -60 61 -118 72 -130 30 -32 89 -30 152 5 66 36 91 70 82
114 -4 18 -112 249 -239 513 -200 413 -238 483 -266 502 -40 27 -92 29 -139 6z
m118 -559 c28 -58 50 -108 50 -110 0 -2 -47 -4 -105 -4 -65 0 -105 4 -105 10
0 14 99 210 106 210 3 0 27 -48 54 -106z"/>
<path d="M5243 7800 c-28 -12 -46 -76 -37 -136 11 -73 26 -78 241 -83 l183 -3
0 -439 0 -438 23 -25 c27 -32 110 -44 175 -26 72 19 72 16 72 505 l0 425 153
0 c157 1 230 9 250 29 6 6 13 42 15 81 4 63 2 71 -21 94 l-26 26 -503 -1
c-277 0 -513 -4 -525 -9z"/>
<path d="M9174 7796 c-20 -9 -35 -25 -43 -46 -15 -46 -16 -1019 0 -1053 23
-50 38 -52 426 -55 411 -3 436 0 459 53 32 77 9 196 -41 215 -15 6 -143 10
-301 10 l-274 0 0 85 0 85 196 0 196 0 30 30 c29 30 30 32 27 115 -4 96 -14
111 -75 125 -21 5 -114 10 -206 10 l-168 0 0 80 0 80 263 0 c300 0 332 5 353
55 32 77 9 196 -41 215 -43 16 -763 12 -801 -4z"/>
<path d="M10125 7786 c-21 -21 -25 -35 -25 -80 0 -61 14 -101 39 -112 9 -4 98
-9 199 -12 l182 -4 0 -424 c0 -482 0 -485 67 -503 48 -14 88 -14 135 -1 70 20
68 5 68 491 l0 437 183 3 c214 5 230 10 240 81 7 47 -5 114 -23 132 -8 8 -160
12 -526 14 l-514 3 -25 -25z"/>
<path d="M6934 7699 c-80 -10 -191 -49 -261 -91 -75 -45 -175 -155 -217 -239
-52 -104 -70 -198 -64 -343 4 -101 10 -136 35 -208 83 -240 275 -375 539 -381
79 -2 87 0 105 22 14 17 19 39 19 81 0 77 -12 86 -125 93 -167 9 -265 69 -330
200 -90 184 -63 419 64 545 91 91 203 132 357 132 254 0 439 -115 489 -305 19
-76 19 -197 -1 -264 -30 -102 -150 -190 -224 -164 -33 11 -33 26 10 337 l33
249 -22 19 c-16 12 -40 18 -78 18 -49 0 -58 -4 -84 -31 -16 -17 -29 -26 -29
-19 0 6 -21 20 -47 32 -113 50 -273 -25 -348 -163 -34 -63 -45 -172 -25 -244
15 -54 78 -128 131 -155 56 -29 142 -27 197 5 l42 24 0 -52 c1 -235 316 -296
517 -100 94 92 134 203 134 378 0 188 -48 314 -165 431 -114 114 -257 175
-454 194 -117 11 -110 11 -198 -1z m161 -524 c37 -36 34 -94 -5 -138 -35 -40
-72 -50 -117 -32 -64 27 -74 106 -19 161 44 44 103 48 141 9z"/>
<path d="M11289 6469 c-18 -18 -21 -30 -17 -91 3 -54 8 -73 23 -84 16 -12 121
-14 611 -14 656 0 617 -4 630 65 8 44 -3 105 -23 128 -15 16 -57 17 -610 17
-590 0 -593 0 -614 -21z"/>
<path d="M3980 5718 c-37 -20 -56 -61 -45 -95 11 -30 36 -45 105 -65 40 -12
45 -17 48 -45 6 -59 -69 -85 -112 -38 -24 26 -46 33 -46 15 0 -6 11 -22 25
-35 18 -19 35 -25 70 -25 59 0 95 32 95 84 0 41 -20 58 -90 76 -56 15 -70 26
-70 56 0 52 71 73 111 33 11 -11 27 -19 36 -17 14 2 12 8 -8 31 -28 33 -82 44
-119 25z"/>
<path d="M4305 5716 c-41 -18 -83 -69 -90 -110 -10 -49 11 -111 46 -140 38
-32 67 -40 125 -33 140 15 171 211 44 275 -50 25 -81 27 -125 8z m115 -31 c93
-48 68 -211 -35 -231 -40 -7 -98 16 -120 49 -72 111 39 242 155 182z"/>
<path d="M9153 5710 c-28 -17 -33 -25 -33 -59 0 -49 16 -65 84 -85 29 -9 59
-23 66 -31 18 -22 4 -64 -26 -75 -38 -15 -53 -12 -80 15 -27 27 -44 32 -44 13
1 -53 113 -80 158 -38 56 52 31 114 -56 140 -29 8 -60 23 -69 33 -16 16 -16
20 -3 45 21 36 77 43 105 12 17 -18 45 -28 45 -14 0 19 -24 43 -51 53 -44 15
-59 14 -96 -9z"/>
<path d="M10414 5719 c-112 -32 -132 -206 -31 -268 37 -23 99 -28 141 -11 28
10 66 45 66 60 0 18 -24 10 -48 -14 -29 -31 -72 -41 -117 -26 -52 17 -75 53
-75 116 0 45 5 59 29 86 26 30 35 33 84 33 44 0 60 -5 79 -22 24 -23 48 -30
48 -15 0 16 -47 53 -81 62 -39 12 -53 11 -95 -1z"/>
<path d="M10934 5720 c-41 -13 -94 -73 -96 -108 -6 -119 45 -182 147 -182 56
0 96 21 126 66 39 60 17 169 -43 208 -30 20 -95 27 -134 16z m138 -59 c22 -25
28 -41 28 -79 0 -93 -67 -148 -151 -123 -55 17 -79 52 -79 116 0 86 46 128
130 121 34 -3 51 -11 72 -35z"/>
<path d="M5110 5713 c0 -5 17 -69 39 -143 50 -178 60 -180 109 -17 19 64 37
115 40 112 3 -2 19 -55 36 -117 44 -157 53 -156 106 14 23 73 43 139 46 146 2
8 -3 12 -13 10 -12 -2 -26 -38 -52 -126 -40 -141 -36 -143 -81 36 -19 72 -28
92 -41 92 -14 0 -24 -21 -44 -87 -14 -49 -32 -106 -39 -127 l-12 -39 -34 126
c-22 84 -38 127 -46 127 -8 0 -14 -3 -14 -7z"/>
<path d="M5675 5708 c-3 -7 -27 -73 -54 -145 -37 -101 -45 -133 -35 -133 8 0
22 16 30 35 l14 35 69 0 68 0 9 -32 c6 -18 17 -34 27 -36 14 -3 11 12 -19 95
-20 54 -44 119 -52 146 -11 33 -21 47 -34 47 -10 0 -21 -6 -23 -12z"/>
<path d="M5920 5575 c0 -122 2 -145 15 -145 12 0 15 13 15 60 0 58 1 60 25 60
20 0 33 -12 63 -60 22 -35 44 -59 55 -60 23 0 22 3 -18 63 -38 57 -42 67 -22
67 26 0 57 45 57 82 0 56 -35 78 -121 78 l-69 0 0 -145z"/>
<path d="M6230 5575 l0 -145 75 0 c43 0 75 4 75 10 0 6 -27 10 -60 10 l-60 0
0 60 0 60 50 0 c28 0 50 5 50 10 0 6 -22 10 -50 10 l-50 0 0 55 0 55 60 0 c33
0 60 4 60 10 0 6 -32 10 -75 10 l-75 0 0 -145z"/>
<path d="M6660 5575 l0 -145 63 0 c88 1 139 26 160 79 21 53 21 94 0 138 -25
54 -65 73 -150 73 l-73 0 0 -145z m146 110 c61 -25 82 -125 40 -190 -17 -25
-70 -45 -123 -45 l-33 0 0 125 0 125 40 0 c22 0 56 -7 76 -15z"/>
<path d="M6990 5575 l0 -145 75 0 c88 0 102 18 18 22 l-58 3 0 55 0 55 53 3
c69 4 67 22 -3 22 l-55 0 0 55 0 55 60 0 c33 0 60 4 60 10 0 6 -32 10 -75 10
l-75 0 0 -145z"/>
<path d="M7471 5582 c-28 -76 -51 -141 -51 -145 0 -4 6 -7 13 -7 7 0 19 16 26
35 l12 35 69 0 68 0 12 -35 c7 -20 18 -35 27 -35 8 0 13 6 10 13 -2 6 -26 72
-53 145 -36 98 -53 132 -65 132 -12 0 -30 -36 -68 -138z"/>
<path d="M7760 5575 l0 -145 68 0 c117 0 176 48 176 143 0 104 -49 147 -168
147 l-76 0 0 -145z m143 116 c79 -30 97 -150 32 -211 -19 -18 -36 -23 -82 -24
l-58 -1 -3 109 c-1 61 0 116 2 123 6 15 73 18 109 4z"/>
<path d="M8100 5575 c0 -122 2 -145 15 -145 12 0 15 19 16 113 l0 112 54 -112
c29 -62 58 -113 63 -113 5 0 32 48 60 108 l51 107 0 -107 c1 -89 4 -108 16
-108 13 0 15 23 15 145 0 115 -3 145 -13 145 -8 0 -40 -55 -72 -122 l-57 -123
-58 123 c-80 168 -90 166 -90 -23z"/>
<path d="M8650 5575 c0 -121 2 -145 15 -145 12 0 15 22 17 116 l3 116 79 -116
c43 -64 85 -116 92 -116 11 0 14 29 14 145 0 121 -2 145 -15 145 -12 0 -15
-22 -17 -116 l-3 -117 -78 117 c-42 64 -84 116 -92 116 -13 0 -15 -23 -15
-145z"/>
<path d="M9680 5575 c0 -122 2 -145 15 -145 12 0 15 13 15 60 0 59 1 60 28 60
22 0 33 -11 64 -60 26 -42 43 -60 58 -60 19 0 17 6 -20 59 -45 67 -46 71 -25
71 52 0 75 98 32 138 -19 18 -35 22 -95 22 l-72 0 0 -145z"/>
<path d="M10068 5673 c-8 -26 -32 -92 -52 -146 -30 -83 -33 -98 -19 -95 10 2
21 18 27 36 l9 32 68 0 69 0 14 -35 c8 -19 21 -35 29 -35 11 0 1 38 -38 143
-41 109 -57 143 -72 145 -15 2 -22 -8 -35 -45z"/>
<path d="M11230 5575 c0 -122 2 -145 15 -145 13 0 15 20 15 123 l0 122 80
-120 c44 -66 87 -121 95 -123 13 -3 15 17 15 142 0 123 -2 146 -15 146 -12 0
-15 -20 -15 -117 l0 -118 -78 117 c-106 161 -112 160 -112 -27z"/>
<path d="M6160 5142 c0 -4 24 -68 53 -142 33 -84 58 -136 68 -138 12 -2 30 34
72 140 30 78 54 144 52 147 -15 14 -36 -22 -75 -128 -24 -66 -47 -117 -50
-113 -4 4 -26 60 -51 125 -24 65 -49 117 -56 117 -7 0 -13 -3 -13 -8z"/>
<path d="M6500 5005 l0 -145 75 0 c88 0 102 18 18 22 l-58 3 0 55 0 55 53 3
c69 4 67 22 -3 22 l-55 0 0 55 0 55 60 0 c33 0 60 4 60 10 0 6 -32 10 -75 10
l-75 0 0 -145z"/>
<path d="M7030 5005 l0 -145 75 0 c88 0 102 18 18 22 l-58 3 0 55 0 55 53 3
c69 4 67 22 -3 22 l-55 0 0 55 0 55 60 0 c33 0 60 4 60 10 0 6 -32 10 -75 10
l-75 0 0 -145z"/>
<path d="M7280 5005 c0 -122 2 -145 15 -145 12 0 15 13 15 60 0 59 1 60 28 60
22 0 33 -11 64 -60 26 -42 43 -60 58 -60 19 0 17 6 -20 59 -45 67 -46 71 -25
71 52 0 75 98 32 138 -19 18 -35 22 -95 22 l-72 0 0 -145z"/>
<path d="M7730 5005 c0 -122 2 -145 15 -145 13 0 15 20 15 123 l0 122 80 -120
c44 -66 87 -121 95 -123 13 -3 15 17 15 142 0 123 -2 146 -15 146 -12 0 -15
-20 -15 -117 l0 -118 -78 117 c-106 161 -112 160 -112 -27z"/>
<path d="M8116 5018 c-27 -73 -51 -139 -53 -145 -3 -7 2 -13 10 -13 9 0 20 15
27 35 l12 35 68 0 69 0 12 -35 c7 -19 19 -35 26 -35 7 0 13 3 13 7 0 4 -23 69
-51 145 -38 102 -56 138 -68 138 -12 0 -29 -34 -65 -132z"/>
<path d="M8400 5005 c0 -122 2 -145 15 -145 12 0 15 13 15 60 0 59 1 60 28 60
22 0 33 -11 64 -60 26 -42 43 -60 58 -60 19 0 17 6 -20 59 -45 67 -46 71 -25
71 52 0 75 98 32 138 -19 18 -35 22 -95 22 l-72 0 0 -145z"/>
<path d="M8928 5103 c-8 -26 -32 -92 -52 -146 -30 -83 -33 -98 -19 -95 10 2
21 18 27 36 l9 32 68 0 69 0 14 -35 c8 -19 21 -35 29 -35 11 0 1 38 -38 143
-41 109 -57 143 -72 145 -15 2 -22 -8 -35 -45z"/>
</g>
</svg>
